PathFileType	4	(X/Y/Z)	Patient4_TMGait_0pt7_01_right_42.trc.trc
DataRate	CameraRate	NumFrames	NumMarkers	Units	OrigDataRate	OrigDataStartFrame	OrigNumFrames
84.848484848485	84.848484848485	6	33	mm	84.848484848485	89	       141
Frame#	Time	Sacral			L.Shoulder			Chest			R.Shoulder			Neck			R.ASIS			L.ASIS			R.Thigh.Superior			R.Thigh.Lateral			R.Thigh.Inferior			R.Patella			L.Thigh.Superior			L.Thigh.Lateral			L.Thigh.Inferior			L.Patella			L.Shank.Superior			L.Shank.Lateral			L.Shank.Inferior			R.Shank.Superior			R.Shank.Lateral			R.Shank.Inferior			R.Heel			R.Midfoot.Superior			R.Midfoot.Lateral			R.Toe			L.Heel			L.Midfoot.Lateral			L.Midfoot.Superior			L.Toe			L.Elbow			L.Wrist			R.Elbow			R.Wrist			
		X1	Y1	Z1	X2	Y2	Z2	X3	Y3	Z3	X4	Y4	Z4	X5	Y5	Z5	X6	Y6	Z6	X7	Y7	Z7	X8	Y8	Z8	X9	Y9	Z9	X10	Y10	Z10	X11	Y11	Z11	X12	Y12	Z12	X13	Y13	Z13	X14	Y14	Z14	X15	Y15	Z15	X16	Y16	Z16	X17	Y17	Z17	X18	Y18	Z18	X19	Y19	Z19	X20	Y20	Z20	X21	Y21	Z21	X22	Y22	Z22	X23	Y23	Z23	X24	Y24	Z24	X25	Y25	Z25	X26	Y26	Z26	X27	Y27	Z27	X28	Y28	Z28	X29	Y29	Z29	X30	Y30	Z30	X31	Y31	Z31	X32	Y32	Z32	X33	Y33	Z33	

89	49.097142857143	833.266458281293	1010.651257596321	462.477074092092	997.905301093892	1431.905498226235	265.062480559375	1117.810203334518	1359.393394342960	413.893152339520	1056.238506009322	1441.219628463595	593.588729344403	1021.109758024059	1493.798753871616	417.173875467124	1061.674440380348	942.109098178459	568.077237282421	1037.703091548028	957.624131965885	294.573076157038	1091.030836754015	734.684758641306	550.350459642789	1006.823281355613	629.570520997307	616.557344803222	1084.583934368917	567.051032748786	543.030914185837	1072.014654020824	459.425402106200	564.253398029825	1106.122978296451	762.314324637702	329.826719893684	1031.861424214681	636.226636278482	271.022725187907	1125.134466863593	567.721764001941	334.994299121787	1133.928263817535	496.751814510810	344.502379531371	1107.575531472570	422.780157095081	335.792186886832	1022.282836319508	307.029824047877	281.389783090907	1074.017040178655	196.004783620481	351.373878588565	994.577762807715	393.067927791076	568.614080588291	873.456973493453	350.291154789940	625.855597356584	862.321039197220	241.577004460306	573.919213617155	660.403287821144	169.615975819612	546.465212676751	832.341183629789	117.979520116541	576.027702044898	724.456598671465	107.159041557905	611.701276073568	903.768828240664	31.475345279734	586.209071976817	948.776079406390	38.828851709411	387.485350295983	1023.861719205917	36.284826678663	307.826514152641	1106.200114405695	97.148641394194	336.929374391590	1235.532298670632	44.238792880984	309.067820598559	869.624476480620	1101.610112342677	172.173809088470	894.125425190578	839.442097894057	177.343830250752	1132.666712992433	1116.127848591330	731.967837572225	1323.030048913018	1188.994234280648	589.696909103570	
90	49.108928571429	831.929660412916	1010.567194528994	459.566739798166	997.816179450917	1432.855821820079	263.441983622503	1116.675912556358	1359.901267265504	412.899046191274	1053.773808151123	1441.204135446868	592.393040082472	1019.795289360937	1494.217111073683	415.807807618799	1060.386651866248	942.438012361599	565.523936924351	1036.923255983184	958.074353539854	292.098022679535	1095.303710104146	737.128745444852	548.519096893376	1014.814105850444	630.342833698294	615.786291685423	1094.355462412843	569.207827334937	542.364408309856	1083.406660451382	460.469007652728	564.295126035620	1104.044380571043	761.375479429299	327.457920556491	1028.649277217095	636.095736922511	269.044398828173	1120.901593844010	566.837854022322	333.411838220686	1128.890825123169	495.893022148051	343.135769296409	1102.117211466857	421.960540595444	334.575487681452	1016.131227752925	306.621949577372	280.448496721656	1066.717271509192	195.516036033412	351.051222652876	1004.296538816911	394.705511449072	568.854410669854	881.671449645157	356.098954641953	626.125635999329	867.462081899932	247.423724813931	575.255638497419	664.361948368653	185.974319732732	548.371284705484	832.320041793404	122.406909992452	577.352419353308	724.021933773178	118.605732606619	612.886412464303	896.639064724883	29.808503779961	586.459914692478	940.444553662257	38.819732835153	387.402386543514	1015.535733440902	36.201701882633	307.755120053920	1097.980364580899	96.956923897051	336.923983416077	1227.302985598001	43.751994302423	309.066129500205	873.059755465815	1101.653235148521	167.540101472215	909.578589608271	840.721782825218	171.654421795642	1119.010108954783	1113.268344784558	731.501029137573	1318.518298285699	1170.362177766275	594.489998191585	
91	49.120714285714	830.437075198728	1010.274561376039	456.766042549589	997.643287615992	1433.545627835618	261.937092287311	1115.443765762718	1360.158869423960	412.044331310412	1051.195943951509	1440.940544202125	591.340893803940	1018.463254698483	1494.434763559594	414.549820126035	1058.931826702758	942.576339796867	563.121475840992	1036.045964871594	958.354263725866	289.773895705203	1099.492227905273	739.737281450915	546.643497569435	1022.864570243818	631.309551545198	614.947900109828	1104.061385283492	571.740809791967	541.484224227723	1094.959736192826	461.955117346591	563.901588521334	1101.947718157147	760.458567227078	325.324201395196	1025.549424505709	635.958166854578	267.116501128920	1116.772325156296	565.960688390593	331.885727980712	1123.974920745222	495.015443948080	341.793737073784	1096.764833960286	421.101147175893	333.375155750117	1010.042868104557	306.208188118938	279.518874133754	1059.455791869651	195.005571503271	350.723500743385	1014.374343241392	396.640292593073	568.701994276503	890.563737870013	361.926392650170	626.226555495895	873.328677301345	253.456039646473	576.267342038116	669.683029360624	202.253841870242	549.999500193427	833.187115663874	127.329901187599	578.537839763307	724.814859999531	130.460239154662	613.956809844989	890.268222230826	28.195828449308	586.918815766170	932.137026938640	38.807647267995	387.307027992673	1007.230447461634	36.126902615726	307.662922829111	1089.762054276699	96.793637044268	336.894894388719	1219.074110409917	43.354437741374	309.039282647974	876.766897710519	1101.481703127300	162.703546876144	925.818453375548	842.461256293445	166.114707379249	1105.167295744099	1110.308272575721	730.437393654246	1313.275797227130	1150.497919111764	599.932352093350	
92	49.132500000000	828.797575784715	1009.831934081337	454.078891965828	997.369245047038	1433.997597209784	260.552251062365	1114.121850876027	1360.205575779736	411.320629022121	1048.537348804553	1440.475595473626	590.430394644512	1017.139071443475	1494.487678208501	413.399298709831	1057.315157481800	942.573297779009	560.883243985011	1035.091321498190	958.509564186586	287.621711412797	1103.495389572290	742.535862044192	544.704600751444	1030.819420777538	632.533236494999	614.013896908298	1113.546578187305	574.694883901590	540.380545228313	1106.538471001898	463.924894350356	563.117813674906	1099.847931797671	759.564988682388	323.364831539878	1022.479525477939	635.795441680568	265.278353668752	1112.706673053015	565.073657033486	330.407314076307	1119.146331576648	494.121122672522	340.507403201291	1091.483963405812	420.215085047537	332.221907863898	1003.987633747646	305.800555317585	278.629796678286	1052.223102309000	194.483666984082	350.402752271567	1024.676510724503	398.907158029676	568.192985601888	899.966391431940	367.711249607298	626.121515937698	879.879695120482	259.558583907500	576.921689633853	676.232974424808	217.901095127980	551.205851612524	835.083270596736	132.621733405835	579.564605641216	726.910890543046	142.326111886345	614.846018617391	885.076936892586	26.857380298130	587.655433056233	923.851252368735	38.792285036181	387.205416773319	998.943407647935	36.061370777295	307.556123152899	1081.544449990674	96.659538691941	336.846021678664	1210.844412096044	43.043926285978	308.987569650921	880.829869445736	1101.095430486160	157.705924087682	942.768889439495	844.730154288967	160.774275099876	1091.243115469361	1107.296599760413	728.780562729085	1307.100620065454	1129.637392810630	605.970130081932	
93	49.144285714286	827.022925229013	1009.311106959485	451.505781502314	996.996442916832	1434.253492124139	259.288204379921	1112.727449732290	1360.091110388150	410.718097115061	1045.835326029146	1439.867850848839	589.652762945576	1015.847962185595	1494.420666078760	412.353641863843	1055.547047834914	942.490442848354	558.824356071973	1034.079396688215	958.586571361104	285.658010210898	1107.228682515152	745.547190924564	542.699236816847	1038.544900468082	634.066414568621	612.976607373503	1122.685147997284	578.100620267268	539.070657215360	1118.017630394623	466.413463783983	562.016458021813	1097.742829257133	758.686377271851	321.528224158982	1019.359633509899	635.596940578406	263.563964592112	1108.648957593362	564.163249200846	328.981717081615	1114.348680427844	493.211922386743	339.307594330745	1086.222445098641	419.317560809186	331.143230872112	997.924452975649	305.409205482215	277.804766736110	1045.000962520048	193.961724534907	350.099890362579	1035.084982833045	401.531663684580	567.393747590858	909.713000093479	373.385817633377	625.785527986874	887.087897130085	265.593869039243	577.211634360344	683.844563553938	232.326637810592	551.866803324193	838.174591527474	138.116024222493	580.427881261705	730.380383020391	153.758757084466	615.502052063834	881.573220315714	26.027021317846	588.744091536102	915.580376908699	38.773347309644	387.103313125599	990.668836699870	36.004727320797	307.441751808699	1073.324883769664	96.551984209477	336.783230943962	1202.610950759592	42.810177082514	308.915440712570	885.309501339951	1100.527628889644	152.609582863130	960.330853641485	847.614188998239	155.684024370194	1077.345301936516	1104.304085421409	726.566670181285	1299.807848895171	1108.056704840055	612.516531143243	
94	49.156071428571	825.130488651100	1008.787249559729	449.046436715485	996.547050510387	1434.368293256989	258.142470274166	1111.285588141334	1359.869502806466	410.227125067646	1043.128995855316	1439.182734424146	588.993325557388	1014.613026787416	1494.282638789980	411.408649753527	1053.642955682135	942.395089177018	556.962883988138	1033.028352559786	958.628449300147	283.893021224404	1110.626068818067	748.788571566058	540.643512373066	1045.933491314613	635.946896408522	611.849619526799	1131.382242640631	581.971650357779	537.595822127707	1129.285812436038	469.447113089922	560.686395506961	1095.614490907116	757.809740395353	319.782482620215	1016.123086417557	635.362246944885	261.998504716413	1104.535462117720	563.221974431303	327.627967494132	1109.511542185544	492.290610100770	338.222553604821	1080.918501853994	418.425101806222	330.161651730896	991.808683814690	305.042253899061	277.059550294102	1037.765229755168	193.451529445496	349.823901877906	1045.503480811619	404.525048002769	566.387936105755	919.652018968745	378.873407953464	625.206692182160	894.942463797924	271.407868686907	577.153443993883	692.343404394873	244.954638787909	551.893650375973	842.641152241739	143.620031128813	581.136203906059	735.289964301996	164.302158262296	615.892517153824	880.310548869147	25.909398106799	590.253996014655	907.315282238355	38.750844403613	387.005221558275	982.399696323873	35.955915089579	307.326339100894	1065.099846498850	96.466384689329	336.712884735298	1194.370393692502	42.638502399983	308.829717909040	890.236679852538	1099.838635372143	147.493719401161	978.385300755705	851.208197962354	150.894759644912	1063.586109218522	1101.419914994275	723.865820205722	1291.237888147635	1086.052226332926	619.461559303245	
